<?xml version="1.0" standalone="no"?>
<!DOCTYPE svg PUBLIC "-//W3C//DTD SVG 20010904//EN"
 "http://www.w3.org/TR/2001/REC-SVG-20010904/DTD/svg10.dtd">
<svg version="1.0" xmlns="http://www.w3.org/2000/svg"
 width="450px" height="500px" viewBox="0 0 1300.000000 1616.000000"
 preserveAspectRatio="xMidYMid meet">
<metadata>
Created by potrace 1.16, written by Peter Selinger 2001-2019
</metadata>
<defs>
     <linearGradient id="myGradientblack" gradientTransform="rotate(90)">
      <stop offset="0%" stop-color="#fff " />
      <stop offset="50%" stop-color="#000" />
      <stop offset="100%" stop-color="#ededed" />
    </linearGradient>
  </defs>
<g transform="translate(0.000000,1616.000000) scale(0.100000,-0.100000)"
fill="url(#myGradientblack)" stroke="none">
<path d="M6425 15689 c-128 -8 -292 -37 -385 -69 -70 -24 -77 -23 -335 11 -44
6 -98 8 -120 6 -22 -3 -68 -6 -103 -6 -35 -1 -61 -5 -58 -10 3 -5 34 -7 68 -4
35 2 81 0 103 -5 l40 -9 -40 -10 c-169 -45 -297 -63 -324 -45 -20 14 -4 32 30
32 34 0 69 16 69 31 0 6 -20 7 -52 4 -84 -10 -100 -15 -95 -29 4 -10 -14 -15
-76 -19 -45 -3 -95 -10 -112 -15 -128 -42 -242 -78 -310 -97 -44 -13 -102 -35
-129 -49 -27 -14 -58 -26 -69 -26 -10 0 -39 -18 -65 -40 -25 -22 -57 -43 -71
-46 -45 -9 -72 -23 -119 -63 -26 -21 -74 -52 -107 -68 -33 -16 -96 -49 -140
-72 -44 -24 -123 -58 -175 -76 -183 -63 -305 -130 -430 -234 -36 -30 -86 -64
-112 -76 -83 -38 -208 -126 -208 -146 0 -23 -20 -35 -30 -18 -6 9 -49 -26
-152 -123 -79 -75 -172 -169 -208 -208 -36 -40 -72 -79 -79 -88 -8 -8 -25 -35
-37 -61 -12 -25 -52 -81 -88 -124 -36 -43 -69 -90 -72 -105 -4 -15 -31 -59
-60 -98 -30 -39 -54 -75 -54 -81 0 -22 -62 -168 -80 -188 -10 -11 -24 -49 -30
-85 -7 -36 -23 -88 -36 -117 -15 -32 -24 -70 -24 -101 0 -33 -5 -54 -15 -62
-9 -7 -14 -19 -11 -26 3 -7 0 -14 -6 -16 -23 -8 -16 -426 8 -525 5 -18 3 -24
-5 -19 -7 5 -11 -2 -11 -18 0 -16 6 -26 15 -26 19 0 19 -5 -5 -84 -16 -51 -20
-90 -19 -171 1 -104 2 -105 25 -105 18 0 24 -5 24 -22 0 -32 11 -43 43 -45 43
-2 57 -11 57 -38 0 -33 30 -29 65 9 28 31 49 26 42 -10 -4 -21 0 -24 25 -24
16 0 31 -6 34 -14 7 -17 44 -9 44 10 0 14 18 29 26 21 3 -3 1 -14 -5 -25 -6
-12 -8 -40 -5 -66 6 -42 9 -46 33 -46 20 0 27 5 28 21 2 27 23 51 23 27 0 -9
-4 -28 -9 -41 -14 -35 -21 -137 -10 -137 5 0 9 5 9 11 0 5 4 7 10 4 14 -9 12
-48 -2 -64 -9 -10 -9 -12 -1 -7 19 11 22 -4 24 -132 1 -67 6 -122 11 -122 5 0
6 6 2 13 -4 6 0 5 9 -3 9 -8 17 -30 19 -48 2 -26 6 -32 25 -32 20 0 23 -5 23
-35 0 -42 32 -84 109 -145 17 -14 31 -34 31 -46 0 -35 21 -84 36 -84 8 0 14
-7 14 -15 0 -9 11 -27 25 -41 14 -14 25 -33 25 -43 0 -9 7 -26 16 -37 8 -10
13 -13 9 -6 -3 6 -1 12 4 12 6 0 11 -9 11 -19 0 -23 18 -37 43 -33 21 4 22 -6
1 -29 -12 -13 -13 -21 -5 -31 6 -7 34 -42 63 -76 29 -35 77 -98 106 -140 29
-42 60 -80 68 -85 8 -5 31 -42 50 -83 19 -41 38 -74 43 -74 5 0 14 -13 21 -30
7 -16 18 -30 26 -30 7 0 14 -12 16 -27 2 -20 9 -29 26 -31 18 -3 22 -10 22
-38 0 -27 4 -34 19 -34 13 0 20 -9 25 -30 4 -21 11 -30 25 -30 13 0 21 -8 23
-22 2 -13 13 -27 26 -33 12 -5 22 -15 22 -21 0 -17 106 -114 124 -114 9 0 16
-5 16 -12 0 -6 27 -39 59 -72 124 -128 181 -191 181 -200 0 -5 8 -18 17 -28
18 -21 48 -67 84 -133 12 -22 25 -42 29 -45 4 -3 15 -20 24 -37 9 -18 21 -33
26 -33 6 0 9 -3 8 -7 -4 -14 25 -61 67 -107 11 -12 26 -34 34 -49 8 -15 20
-27 28 -27 7 0 13 -9 13 -20 0 -11 11 -27 25 -36 14 -9 25 -21 25 -28 0 -10
24 -43 67 -91 10 -11 24 -33 30 -48 7 -15 20 -30 28 -33 8 -4 15 -12 15 -19 0
-7 17 -39 39 -71 58 -89 94 -160 131 -257 18 -48 38 -91 45 -95 7 -4 15 -28
18 -55 7 -55 13 -67 33 -67 9 0 14 -11 14 -30 0 -19 7 -33 20 -40 11 -6 20
-16 19 -23 -1 -7 1 -19 4 -27 16 -40 34 -321 23 -363 -5 -22 -16 -28 -73 -41
-37 -8 -72 -22 -78 -30 -6 -8 -31 -16 -55 -18 -26 -2 -46 -9 -46 -16 -1 -7 -2
-19 -3 -27 0 -8 -10 -15 -21 -15 -12 0 -25 -13 -36 -35 -15 -33 -36 -43 -77
-36 -4 0 -6 -2 -6 -6 5 -32 -3 -52 -23 -55 -21 -3 -23 -9 -26 -65 -3 -55 -5
-62 -25 -65 -18 -3 -22 -10 -25 -57 -2 -39 -8 -58 -21 -68 -15 -10 -18 -24
-16 -73 2 -52 -1 -64 -23 -85 -19 -19 -25 -38 -30 -90 -3 -46 -9 -65 -18 -65
-8 0 -15 -8 -15 -17 -6 -69 -10 -95 -23 -145 -14 -55 -58 -142 -77 -154 -5 -3
-9 -16 -9 -29 0 -16 -7 -25 -25 -29 -14 -4 -24 -10 -24 -14 5 -28 -3 -52 -17
-52 -9 0 -21 -14 -27 -30 -6 -17 -16 -30 -21 -30 -8 0 -101 -92 -173 -171 -12
-13 -28 -29 -35 -35 -54 -48 -338 -343 -338 -352 0 -7 -6 -12 -13 -12 -16 0
-177 -161 -177 -178 0 -6 -6 -12 -13 -12 -17 0 -177 -160 -177 -177 0 -7 -6
-13 -13 -13 -13 0 -252 -239 -354 -354 -29 -32 -57 -74 -62 -92 -5 -18 -27
-53 -49 -76 -65 -70 -118 -141 -125 -168 -3 -14 -29 -55 -57 -90 -27 -36 -50
-70 -50 -77 0 -14 -35 -79 -54 -103 -13 -16 -82 -137 -103 -180 -6 -14 -31
-65 -54 -115 -23 -49 -67 -144 -99 -210 -32 -66 -62 -133 -66 -150 -4 -16 -20
-50 -36 -74 -15 -25 -28 -50 -28 -57 0 -6 -25 -49 -55 -94 -30 -45 -55 -88
-55 -94 0 -7 -13 -32 -28 -57 -15 -24 -39 -73 -53 -109 -54 -135 -69 -176 -69
-186 0 -6 -15 -59 -34 -120 -39 -126 -66 -238 -66 -275 0 -14 -3 -29 -7 -33
-17 -16 -35 -117 -43 -236 -5 -80 -18 -159 -35 -220 -34 -123 -55 -229 -61
-310 -3 -36 -9 -76 -14 -90 -21 -63 -31 -206 -28 -375 4 -189 11 -248 28 -253
5 -2 10 -24 10 -48 0 -25 5 -54 10 -65 17 -32 23 -142 12 -210 -6 -35 -14
-112 -17 -170 -6 -103 -5 -107 19 -136 16 -19 26 -43 26 -62 0 -17 16 -62 35
-99 l35 -67 2 -215 c1 -118 -2 -230 -6 -248 l-8 -32 5065 0 5065 0 7 33 c3 17
10 75 15 127 7 93 16 130 66 292 14 46 24 102 24 138 0 36 4 59 9 55 19 -11
19 1419 1 1505 -6 25 -17 92 -25 150 -8 58 -19 123 -24 145 -5 22 -19 85 -31
140 -36 168 -137 465 -211 622 -21 46 -39 88 -39 96 0 7 -16 37 -35 67 -19 30
-35 62 -35 71 0 9 -13 34 -29 57 -47 64 -127 225 -157 315 -15 45 -39 105 -55
132 -15 28 -30 66 -34 85 -4 19 -24 64 -45 100 -21 36 -66 115 -100 175 -35
61 -71 124 -81 140 -11 17 -27 48 -38 70 -10 22 -35 67 -56 100 -20 33 -84
157 -143 275 -106 215 -146 278 -297 461 -117 142 -169 190 -445 407 -69 55
-161 135 -206 178 -117 115 -219 196 -362 286 -207 131 -230 139 -384 138
-125 -1 -132 2 -273 104 -49 36 -121 87 -160 112 -38 26 -106 73 -150 106
-159 117 -190 138 -200 138 -23 0 -68 -58 -62 -80 5 -18 -11 -68 -69 -220 -7
-19 -13 -41 -14 -49 0 -7 -17 -48 -37 -90 -42 -85 -40 -66 -27 -417 5 -144 4
-176 -10 -201 -14 -28 -19 -30 -58 -26 -41 5 -45 2 -106 -56 -75 -73 -102
-129 -109 -228 -6 -70 -5 -73 16 -73 14 0 21 6 21 20 0 11 5 20 10 20 6 0 10
-7 10 -15 0 -21 30 -31 41 -14 5 9 3 22 -6 36 -16 24 -10 57 9 46 17 -11 35
-12 42 -2 3 6 15 7 26 3 20 -6 20 -5 5 16 -12 17 -13 28 -6 41 5 10 8 29 5 42
-2 13 4 33 15 46 10 13 19 18 19 12 0 -6 5 -11 10 -11 6 0 10 5 10 10 0 6 12
22 28 35 20 17 30 20 40 13 10 -9 10 -15 -2 -33 -12 -18 -12 -26 -2 -41 7 -11
16 -31 19 -45 9 -37 75 -133 97 -141 27 -10 32 -46 8 -62 -33 -23 -12 -38 50
-34 62 3 73 -9 43 -45 -13 -16 -13 -19 -1 -27 24 -15 44 -12 63 10 19 23 29
24 77 10 19 -6 56 -11 83 -11 29 0 45 -4 41 -10 -3 -6 3 -13 15 -16 11 -3 19
-9 16 -13 -2 -4 4 -15 15 -25 11 -10 20 -24 20 -32 0 -8 10 -27 21 -43 20 -26
21 -33 10 -74 -15 -59 -15 -57 14 -50 15 4 25 2 26 -5 1 -6 2 -17 3 -23 0 -7
14 -14 29 -16 28 -3 33 -27 6 -27 -18 -1 -13 -26 9 -45 9 -8 24 -28 32 -44 8
-16 26 -36 40 -44 14 -8 40 -31 58 -51 48 -52 132 -151 132 -157 0 -7 -38 15
-45 26 -7 12 -102 91 -155 130 -19 14 -60 48 -92 77 -78 71 -215 159 -269 173
-24 6 -79 24 -121 41 -43 17 -100 34 -128 38 -30 5 -68 20 -93 38 -73 51 -160
83 -284 102 -34 5 -78 21 -100 34 -21 14 -62 30 -91 36 -30 6 -73 22 -96 36
-23 13 -62 31 -86 40 -25 9 -61 31 -80 49 -19 18 -55 47 -80 65 -44 31 -76 55
-182 138 -54 43 -119 115 -131 145 -3 9 -14 16 -24 16 -35 -2 -141 83 -157
126 -4 13 7 7 34 -17 49 -45 77 -53 115 -33 17 9 50 16 74 16 l43 0 -6 35 c-7
36 19 115 43 129 14 9 14 58 -1 91 -9 19 -9 28 0 37 9 9 12 7 12 -10 0 -30 27
-28 56 4 24 25 33 51 15 39 -6 -3 -15 3 -21 14 -9 18 -7 21 16 27 22 6 25 11
22 35 -4 25 -1 29 18 29 12 0 25 -6 28 -12 5 -10 7 -10 12 0 4 8 12 1 23 -20
9 -19 30 -39 49 -47 17 -8 32 -20 32 -27 0 -17 27 -30 69 -33 50 -2 61 -16 61
-73 0 -40 -3 -49 -15 -44 -8 3 -25 1 -37 -4 -21 -8 -20 -9 12 -11 19 -2 45 -2
58 -1 12 0 20 -3 17 -9 -4 -5 3 -9 14 -9 16 0 21 -6 21 -28 0 -17 11 -37 30
-55 17 -16 32 -43 36 -65 4 -20 14 -47 22 -60 l15 -23 18 28 c11 15 19 36 19
45 0 9 11 25 25 36 14 11 25 24 25 29 0 4 9 14 20 21 20 12 27 46 12 56 -5 3
-7 19 -4 35 3 24 12 33 37 42 21 8 39 24 49 46 18 38 45 44 47 11 2 -35 20 50
23 107 1 28 3 103 4 168 1 64 5 117 10 117 4 0 7 -15 7 -32 0 -27 4 -34 23
-36 19 -3 22 1 24 35 4 105 10 125 35 121 18 -3 18 0 6 45 -4 11 0 17 10 17 9
0 26 18 38 40 13 22 26 40 31 40 8 0 107 98 222 220 45 48 48 53 36 75 -11 20
-11 27 0 40 10 12 10 30 1 88 -6 39 -12 122 -12 182 -1 98 2 116 24 160 14 28
37 61 52 75 15 14 31 35 36 47 4 12 28 34 51 49 24 15 58 40 77 56 30 27 34
28 51 13 15 -14 18 -14 30 0 7 8 16 15 19 15 4 0 29 21 56 46 27 25 62 48 77
51 15 3 28 12 28 19 0 8 10 14 23 14 46 0 67 12 67 36 0 23 3 24 78 26 42 0
84 1 92 2 9 1 16 13 18 29 l3 27 122 0 c67 1 167 5 222 10 85 9 363 29 403 30
7 0 10 5 7 10 -7 11 2 13 58 10 22 -1 56 7 80 19 27 14 35 16 22 5 l-20 -16
20 4 c13 2 21 12 23 31 3 26 6 27 57 27 53 0 73 10 93 46 4 8 27 16 50 18 24
2 51 11 62 21 23 21 24 24 10 45 -9 13 -13 11 -29 -9 l-18 -23 -23 38 c-13 22
-41 56 -62 77 -21 21 -38 45 -38 53 0 14 -17 19 -52 16 -11 -1 -15 3 -12 12 3
8 0 25 -7 38 -7 13 -12 29 -10 37 4 19 -36 54 -43 38 -3 -7 -3 -2 0 11 3 12 1
22 -5 22 -6 0 -11 5 -11 10 0 6 -9 20 -19 31 -19 21 -43 18 -40 -4 5 -45 -1
-49 -31 -17 -16 18 -30 39 -30 47 0 11 -7 13 -30 8 -26 -6 -30 -3 -36 19 -3
14 -12 26 -20 26 -19 0 -18 37 2 48 10 6 14 14 9 22 -7 11 -19 11 -89 -2 -10
-2 -23 5 -30 17 -25 43 -32 46 -59 21 -18 -17 -33 -22 -56 -18 -37 5 -39 14
-8 35 39 27 69 59 60 67 -4 4 -18 11 -31 15 -21 6 -22 4 -16 -21 6 -24 5 -26
-12 -19 -37 15 -57 10 -74 -20 -11 -20 -25 -30 -41 -31 -14 0 -30 -3 -37 -8
-7 -4 -12 -2 -12 8 0 8 -5 16 -11 18 -7 2 -13 21 -14 41 -1 20 -9 44 -16 54
-9 10 -14 41 -14 81 l0 65 -50 30 c-69 40 -86 62 -74 94 12 32 1 73 -20 73 -9
0 -24 13 -33 28 -15 25 -24 29 -65 31 -33 1 -53 7 -63 20 -8 10 -23 21 -32 24
-22 8 -23 26 -3 33 9 4 15 19 15 36 0 17 4 27 10 23 6 -3 10 -1 10 4 0 11 -4
12 -52 15 -39 3 -50 18 -50 67 1 31 -2 39 -11 30 -18 -18 -23 -14 -43 34 -12
30 -24 45 -36 45 -10 0 -18 5 -18 10 0 6 7 10 15 10 8 0 15 9 15 20 0 21 -24
28 -35 10 -14 -23 -22 -7 -18 34 3 24 1 46 -5 49 -5 4 -7 18 -4 32 4 22 13 29
33 27 4 -1 5 7 2 18 -3 11 0 33 5 50 10 28 10 29 -8 20 -16 -9 -20 -7 -21 7
-1 10 -1 22 0 27 5 25 -11 55 -32 59 -19 4 -18 4 6 6 21 1 27 6 27 25 0 28
-22 49 -47 44 -10 -1 -24 1 -30 5 -15 10 -17 73 -3 82 6 4 8 11 5 16 -4 5 -1
9 4 9 25 0 8 28 -19 34 -37 7 -74 47 -91 99 -8 23 -18 37 -29 37 -9 0 -27 11
-39 24 -29 31 -21 65 22 90 31 18 32 19 10 27 -13 5 -23 14 -23 21 0 10 -3 9
-9 -1 -5 -8 -7 -20 -4 -28 3 -7 -1 -13 -8 -13 -7 0 -20 -7 -29 -15 -15 -14
-16 -12 -12 15 2 17 10 30 18 30 8 0 14 10 14 21 0 16 -5 20 -20 16 -16 -4
-20 0 -20 20 0 13 4 22 9 19 23 -14 51 75 32 98 -7 8 -11 18 -10 22 4 26 -1
36 -15 25 -10 -8 -21 -8 -40 -1 -45 17 -55 13 -54 -20 1 -17 4 -33 9 -35 9 -6
-12 -65 -23 -65 -4 0 -8 -7 -8 -15 0 -8 -4 -15 -10 -15 -5 0 -10 7 -10 15 0 8
-4 15 -10 15 -16 0 -12 50 5 56 8 4 15 15 15 25 0 10 5 19 10 19 6 0 10 5 10
10 0 6 -8 10 -17 8 -26 -4 -28 33 -3 62 11 12 20 18 20 11 0 -7 5 -9 11 -5 6
3 8 16 5 28 -6 26 3 43 28 47 32 6 29 25 -8 43 -32 15 -56 46 -36 46 6 0 10
10 10 23 0 13 5 28 10 33 8 8 7 19 0 39 -6 15 -8 31 -4 34 4 3 9 0 11 -6 3 -7
11 -13 18 -13 8 0 11 -7 8 -20 -5 -18 -3 -19 19 -11 20 7 28 5 39 -10 13 -18
49 -26 62 -13 3 3 0 18 -6 32 -9 20 -9 26 1 30 22 7 63 50 82 84 l17 33 104 2
c77 1 110 -2 126 -13 14 -9 43 -13 76 -12 65 3 117 -17 117 -44 0 -29 34 -70
48 -56 17 17 40 2 44 -28 2 -15 9 -29 16 -32 18 -6 15 47 -8 130 -11 40 -20
84 -20 97 0 13 -6 32 -14 40 -23 26 -29 76 -12 91 22 18 43 6 49 -27 3 -15 19
-74 36 -131 17 -56 31 -113 31 -127 0 -22 16 -80 56 -205 7 -25 17 -66 20 -93
4 -26 11 -50 15 -53 5 -3 9 -13 9 -22 0 -9 12 -33 26 -53 24 -35 26 -46 29
-176 4 -160 3 -152 15 -133 5 8 7 26 4 40 -5 23 -4 22 11 -5 9 -16 18 -50 21
-74 10 -107 50 -171 105 -171 14 0 38 -9 52 -20 21 -16 40 -20 109 -20 62 0
91 -5 113 -18 31 -19 65 -18 65 0 0 6 8 20 17 30 13 14 14 21 5 30 -7 7 -12
22 -12 35 0 32 -24 39 -49 14 -11 -11 -27 -18 -36 -15 -19 8 -19 10 14 64 26
42 30 45 72 45 28 1 51 -5 64 -17 20 -17 23 -16 102 65 85 87 97 112 86 181
-5 33 -23 51 -23 24 0 -7 -14 -26 -31 -43 -16 -16 -41 -40 -54 -53 -13 -13
-21 -30 -18 -37 7 -21 -7 -41 -18 -24 -6 10 -19 2 -53 -33 -44 -46 -44 -46
-62 -27 -15 17 -16 24 -6 39 16 26 15 52 -1 75 -13 17 -15 17 -30 -5 -19 -28
-24 -25 -29 14 -2 16 -13 40 -25 53 -22 25 -23 74 -1 101 6 7 8 31 5 57 -5 36
-4 43 8 39 16 -7 85 45 85 64 0 15 -66 17 -75 2 -9 -15 -25 -12 -25 5 0 8 -4
15 -10 15 -6 0 -9 34 -7 84 3 104 -15 136 -34 62 -16 -66 -29 -41 -29 59 -1
81 -20 177 -36 182 -5 2 -8 -86 -6 -211 l4 -214 -57 -61 c-55 -58 -60 -61
-105 -61 -43 0 -51 4 -83 39 -48 53 -49 56 -97 216 -23 77 -48 150 -56 163 -9
14 -13 34 -9 55 4 20 -2 57 -14 97 -11 36 -23 84 -27 108 -4 23 -11 45 -15 48
-15 9 -10 103 7 129 11 16 14 34 9 55 -8 35 -25 40 -25 8 0 -13 -4 -29 -9 -37
-7 -11 -12 -9 -24 10 -8 13 -18 34 -22 46 -3 12 -16 30 -28 40 -22 17 -57 93
-57 122 0 22 49 81 67 81 11 0 13 -5 8 -17 -24 -59 -27 -72 -21 -96 3 -15 13
-27 22 -27 13 0 15 14 13 85 -3 85 -3 86 30 118 30 30 33 31 42 14 11 -18 12
-18 32 1 24 21 92 27 132 12 31 -12 39 0 19 28 -11 16 -26 22 -50 22 -49 0
-124 20 -125 34 -1 6 0 40 1 76 1 61 0 67 -24 80 -20 10 -29 11 -38 2 -18 -18
-34 -14 -65 17 -32 31 -62 37 -268 46 -96 5 -101 6 -125 35 -14 17 -30 30 -36
30 -14 0 -54 -43 -54 -57 0 -6 -18 -30 -41 -53 -37 -37 -46 -41 -83 -39 -23 2
-46 0 -51 -3 -6 -3 -27 -9 -48 -13 -32 -6 -37 -5 -37 12 0 26 19 43 49 43 l26
0 -29 23 c-19 15 -26 28 -21 36 4 7 7 30 7 52 -1 44 13 52 22 14 4 -14 13 -25
21 -25 19 0 19 34 0 50 -8 7 -15 18 -15 24 0 7 -10 26 -23 43 -17 23 -27 29
-38 22 -7 -5 -25 -9 -38 -9 -19 0 -22 4 -18 21 4 15 -1 22 -18 29 -13 5 -26
14 -30 19 -3 6 -16 11 -28 12 -20 0 -21 1 -3 8 17 6 17 8 4 14 -9 3 -19 21
-23 39 -4 18 -14 42 -22 54 -7 12 -12 27 -11 34 2 7 -3 15 -9 17 -8 3 -13 -4
-13 -19 -1 -20 -2 -21 -11 -5 -5 9 -7 22 -4 27 3 6 1 10 -5 10 -7 0 -10 6 -7
14 7 17 -27 51 -41 42 -12 -7 -72 44 -72 61 0 7 -8 13 -19 13 -28 0 -43 24
-39 67 2 26 8 38 18 38 8 0 25 6 38 13 18 11 22 10 22 -2 0 -20 48 3 56 27 3
9 9 17 13 17 4 0 7 17 6 38 -1 30 4 39 25 50 14 8 33 15 44 18 10 2 25 9 34
16 13 11 14 9 10 -20 -4 -32 15 -47 25 -19 3 8 11 3 25 -13 11 -14 22 -23 25
-20 11 12 47 142 47 169 0 22 -9 37 -34 56 -48 37 -87 125 -55 125 15 0 48 42
49 62 0 9 5 29 12 43 10 21 9 28 -2 35 -12 7 -11 12 4 28 17 19 17 20 -3 27
-23 7 -25 13 -12 33 13 21 97 5 126 -24 13 -13 31 -24 40 -24 17 0 21 25 5 35
-5 3 -10 15 -10 26 0 10 -9 28 -20 39 -11 11 -20 29 -20 41 0 11 -7 27 -16 36
-14 14 -13 18 7 39 25 26 45 31 52 12 3 -10 10 -10 31 1 20 11 29 12 38 3 15
-15 45 -16 53 -2 3 6 -5 14 -19 20 -29 10 -32 20 -14 38 17 17 2 27 -17 12
-11 -9 -19 -10 -26 -3 -7 7 0 17 22 31 35 22 63 14 72 -20 6 -21 37 -24 37 -3
0 7 -8 19 -17 24 -13 8 -5 9 30 4 28 -3 47 -2 47 4 0 17 69 33 97 22 33 -12
39 -12 58 7 14 14 20 15 40 4 13 -7 32 -9 42 -5 17 6 16 8 -4 22 -13 9 -23 20
-23 25 0 17 54 3 65 -17 6 -13 18 -19 33 -17 13 2 22 -2 22 -10 0 -19 -29 -58
-43 -58 -7 0 -13 -8 -13 -18 0 -16 9 -19 51 -21 48 -1 49 -1 28 14 -30 21 -29
35 2 35 15 0 25 -6 25 -15 0 -18 39 -29 80 -23 20 3 30 0 30 -8 0 -7 6 -17 14
-21 16 -9 24 -62 12 -82 -6 -9 -1 -8 16 3 24 16 26 15 51 -10 23 -23 31 -25
81 -21 30 3 60 9 67 13 8 4 9 3 5 -4 -4 -7 -1 -12 9 -12 14 0 13 6 -6 40 -25
43 -38 46 -54 12 -15 -34 -32 -26 -55 25 -20 47 -20 67 2 45 7 -7 22 -12 35
-12 20 0 23 5 21 32 -3 27 1 34 18 36 28 4 64 -41 64 -79 0 -16 5 -29 11 -29
6 0 8 8 4 19 -3 10 1 37 9 60 14 41 13 41 -15 62 -22 15 -29 28 -29 54 0 41
17 88 29 81 4 -3 6 6 3 20 -2 13 -16 31 -31 38 -14 8 -47 33 -74 56 -34 31
-59 43 -90 47 -27 4 -50 15 -65 31 -18 19 -30 23 -53 18 -36 -7 -79 8 -79 28
0 27 -37 39 -76 26 -49 -17 -58 -1 -23 38 24 27 36 32 72 32 41 0 43 2 45 31
2 29 1 30 -27 24 -18 -4 -33 -1 -43 8 -20 21 -69 14 -113 -16 -48 -33 -120
-37 -141 -9 -12 16 -15 14 -47 -20 -33 -36 -69 -49 -81 -29 -3 4 22 36 56 70
43 43 68 61 87 61 14 0 33 5 41 10 13 8 12 10 -2 10 -13 0 -18 8 -18 30 0 23
-4 30 -20 30 -13 0 -20 7 -20 20 0 11 -6 20 -14 20 -7 0 -25 -9 -39 -20 -15
-12 -40 -20 -65 -20 -26 0 -45 -6 -57 -20 -10 -11 -22 -17 -26 -14 -16 10 -9
43 11 54 14 7 20 21 20 45 0 18 5 46 11 62 16 38 21 243 8 282 -6 17 -17 31
-25 31 -8 0 -14 10 -14 23 0 23 -13 49 -24 48 -40 -6 -76 1 -76 14 0 12 -19
15 -115 15 l-116 0 -117 119 c-64 65 -142 134 -173 154 -80 51 -167 97 -184
97 -8 0 -34 9 -57 19 -102 45 -390 112 -543 126 -44 4 -96 13 -115 20 -19 8
-59 16 -88 20 -30 3 -70 12 -90 20 -43 17 -242 23 -407 14z m2375 -3639 c0 -5
11 -10 25 -10 56 0 135 -57 135 -97 0 -19 5 -23 30 -23 48 0 37 -28 -38 -100
-38 -36 -74 -75 -81 -87 -9 -17 -21 -23 -46 -23 -18 0 -44 -4 -57 -9 -40 -14
-108 -22 -108 -12 0 6 10 19 22 31 17 16 18 20 6 20 -17 0 -31 24 -21 34 4 3
12 1 20 -6 19 -16 27 -4 12 21 -11 17 -10 24 7 48 36 50 36 62 3 82 -22 13
-42 17 -70 14 -41 -6 -50 5 -24 27 12 10 22 10 40 2 20 -9 26 -8 39 13 19 29
20 47 4 64 -11 10 -6 11 23 6 23 -4 39 -3 43 4 9 14 36 14 36 1z m-2980 -1374
c14 -2 30 -4 35 -5 6 0 16 -10 22 -20 11 -17 9 -24 -9 -44 l-22 -25 -26 20
c-26 19 -29 19 -79 2 -52 -17 -103 -51 -129 -87 -7 -9 -18 -15 -23 -12 -14 9
-11 41 5 54 13 11 29 64 17 57 -4 -3 -11 6 -18 19 -10 23 -9 24 41 35 74 15
108 18 136 13 14 -2 36 -6 50 -7z m581 -1402 c16 -14 20 -14 48 0 39 21 55 20
47 0 -8 -21 20 -54 45 -54 10 0 23 9 29 20 6 11 15 20 20 20 6 0 10 -9 10 -20
0 -11 -4 -20 -10 -20 -5 0 -10 -7 -10 -15 0 -17 -42 -30 -66 -21 -13 5 -14 9
-4 21 7 8 10 15 7 15 -3 0 -12 3 -21 6 -12 4 -16 0 -16 -16 0 -22 -3 -23 -64
-18 -35 3 -70 9 -77 14 -8 5 -26 9 -41 10 -48 3 -78 14 -78 29 0 9 10 15 28
16 15 0 43 7 62 14 47 18 70 18 91 -1z"/>
<path d="M8780 13185 c0 -22 62 -94 233 -270 54 -56 105 -112 115 -126 9 -13
22 -31 29 -39 56 -70 85 -116 91 -148 11 -52 27 -42 28 18 1 52 -4 58 -24 38
-9 -9 -12 -8 -13 5 -1 15 -3 32 -8 67 0 5 -7 7 -15 4 -14 -5 -41 28 -31 38 3
3 -6 11 -20 18 -14 7 -25 21 -25 30 0 20 -24 43 -33 33 -4 -3 -7 3 -7 14 0 19
-51 73 -69 73 -6 0 -13 5 -17 12 -5 7 -3 8 6 3 8 -5 11 -4 6 3 -4 6 -12 9 -19
6 -17 -6 -69 45 -63 62 3 8 2 13 -2 13 -28 -5 -40 3 -35 21 6 24 -13 51 -31
44 -7 -3 -19 2 -26 11 -7 9 -8 15 -2 15 11 0 10 25 -2 37 -4 4 -7 4 -6 -2 5
-22 0 -36 -10 -30 -6 4 -8 16 -4 27 5 17 3 19 -16 13 -15 -5 -20 -4 -16 4 4 6
2 11 -3 11 -6 0 -11 -2 -11 -5z"/>
<path d="M9310 12426 c0 -69 -5 -158 -11 -198 -8 -57 -8 -88 3 -142 13 -62 17
-71 41 -77 26 -7 53 11 29 19 -16 5 -15 29 1 39 15 10 38 73 31 85 -3 5 2 30
12 57 12 35 15 58 9 87 -5 21 -7 43 -6 47 1 5 -8 11 -19 14 -15 4 -20 14 -20
39 0 19 -4 34 -10 34 -5 0 -10 11 -10 25 0 16 -6 25 -15 25 -10 0 -15 10 -15
29 0 17 -4 33 -10 36 -6 4 -10 -38 -10 -119z"/>
<path d="M9541 12033 c-34 -29 -51 -36 -78 -35 -26 2 -39 -4 -58 -25 -30 -34
-31 -66 -6 -124 11 -24 23 -62 27 -84 4 -22 13 -44 20 -50 7 -5 14 -23 16 -40
2 -20 11 -34 28 -42 22 -11 27 -10 41 7 22 25 31 15 23 -27 -5 -25 -3 -33 8
-33 18 0 49 -64 42 -85 -11 -27 -29 -11 -38 33 -14 60 -26 52 -26 -17 0 -57 2
-61 35 -87 19 -14 35 -33 35 -42 0 -8 17 -33 38 -56 20 -23 50 -56 65 -75 15
-18 30 -31 34 -28 8 9 -32 89 -56 111 -11 10 -24 35 -27 55 -4 20 -11 44 -15
53 -6 10 -5 27 3 42 9 21 8 37 -7 84 -11 31 -23 62 -27 68 -4 6 -1 19 6 30 11
15 12 35 7 74 l-6 55 -34 -3 c-42 -3 -116 30 -132 59 -10 20 -9 21 12 15 13
-4 43 -11 67 -15 56 -10 74 4 79 60 1 24 8 62 15 85 23 81 -18 98 -91 37z"/>
<path d="M9947 9646 c-53 -48 -57 -61 -24 -70 18 -5 19 -8 7 -16 -9 -6 -18 -6
-24 0 -16 16 -45 11 -66 -10 -23 -23 -50 -26 -50 -7 0 8 -12 19 -26 26 -24 11
-30 9 -56 -16 -19 -18 -27 -35 -24 -46 3 -12 -9 -34 -33 -60 -21 -23 -46 -57
-57 -75 l-19 -34 30 -24 c33 -26 56 -30 83 -13 12 7 28 7 55 -3 47 -16 49 -32
5 -35 -18 -2 -39 -10 -47 -18 -13 -12 -11 -16 15 -25 16 -6 39 -22 51 -37 15
-18 26 -24 40 -19 17 7 17 8 -2 22 -18 14 -18 16 -4 24 9 5 38 39 65 76 47 64
124 119 132 94 5 -14 42 -12 42 3 0 6 -16 28 -36 47 -30 28 -38 32 -54 23 -10
-7 -20 -9 -24 -6 -10 10 6 55 26 75 19 19 48 18 48 -2 0 -14 27 -13 33 3 2 6
-1 20 -7 29 -8 13 -3 25 22 57 18 22 32 47 32 55 0 23 -32 20 -59 -5 -12 -12
-25 -18 -29 -14 -3 3 0 10 8 15 10 6 12 12 5 19 -7 7 -26 -3 -58 -33z"/>
</g>
</svg>
